<?xml version="1.0" encoding="utf-8"?>
<!-- Generator: Adobe Illustrator 23.0.1, SVG Export Plug-In . SVG Version: 6.00 Build 0)  -->
<svg version="1.1" id="Layer_1" xmlns="http://www.w3.org/2000/svg" xmlns:xlink="http://www.w3.org/1999/xlink" x="0px" y="0px"
	 viewBox="0 0 64 36" style="enable-background:new 0 0 64 36;" xml:space="preserve">
<style type="text/css">
	.st0{fill:#A9A9A9;}
</style>
<path class="st0" d="M0,0v36h64V0H0z M63,35H1V1h62V35z"/>
<path class="st0" d="M24.8,33.9c2.7,0.1,4.9-1.2,5-2.8c0,0,0-0.1,0-0.1c0-7.7,0-15.3,0-23c4.2-1.2,8.5-2.4,12.7-3.6c0,7,0,14,0,21
	c-0.8-0.7-2.2-1.1-3.7-1.1c-0.1,0-0.2,0-0.3,0c-0.1,0-0.2,0-0.3,0c-2.7,0.1-4.7,1.4-4.6,3c0.1,1.6,2.3,2.8,5,2.8
	c2.6,0,4.8-1.2,4.9-2.8c0-0.1,0-0.1,0-0.2c0-8.3,0-16.6,0-24.9c-4.6,1.3-9.1,2.6-13.7,3.9c-0.3,0.1-0.7,0.2-1,0.3
	c0,7.6,0,15.2,0,22.9c-0.8-0.7-2.2-1.1-3.7-1.1c-0.1,0-0.2,0-0.3,0c-0.1,0-0.2,0-0.3,0c-2.7,0.1-4.7,1.4-4.6,3
	C20,32.6,22.2,33.9,24.8,33.9z"/>
</svg>
