<svg viewBox="0 0 60 60" xmlns="http://www.w3.org/2000/svg">
<path d="M29.9 0C38.3 0 45.4 2.9 51.2 8.7C57 14.5 59.9 21.6 59.9 30C59.9 38.4 57 45.4 51.3 51.1C45.2 57.1 38.1 60 29.8 60C21.7 60 14.7 57.1 8.7 51.2C2.9 45.3 0 38.2 0 30C0 21.8 2.9 14.7 8.8 8.7C14.6 2.9 21.7 0 29.9 0ZM30.1 5.4C23.3 5.4 17.5 7.8 12.8 12.6C7.9 17.6 5.5 23.4 5.5 30C5.5 36.6 7.9 42.4 12.8 47.2C17.7 52.1 23.4 54.5 30.2 54.5C36.9 54.5 42.7 52.1 47.7 47.2C52.4 42.7 54.8 36.9 54.8 30C54.8 23.2 52.4 17.4 47.6 12.6C42.6 7.8 36.8 5.4 30.1 5.4ZM38.1 22.6V34.9H34.7V49.5H25.4V34.8H22V22.6C22 22.1 22.2 21.6 22.6 21.2C23 20.8 23.4 20.6 24 20.6H36.3C36.8 20.6 37.2 20.8 37.6 21.2C37.9 21.6 38.1 22 38.1 22.6ZM25.8 14.8C25.8 12 27.2 10.6 30 10.6C32.8 10.6 34.2 12 34.2 14.8C34.2 17.6 32.8 19 30 19C27.2 19 25.8 17.6 25.8 14.8Z" fill="currentColor"/>
</svg>
