<svg viewBox="0 0 60 60" xmlns="http://www.w3.org/2000/svg">
<path d="M29.9 0C38.3 0 45.4 2.90484 51.3 8.81469C54.1 11.6194 56.3 14.8247 57.7 18.5309C59.3 22.1369 60 25.9432 60 30.0501C60 34.1569 59.3 38.0634 57.8 41.5693C56.4 45.1753 54.2 48.3806 51.4 51.0851C48.5 53.99 45.2 56.1937 41.4 57.6962C37.7 59.1987 33.8 60 29.9 60C26 60 22.1 59.1987 18.5 57.6962C14.9 56.1937 11.6 53.99 8.7 51.0851C5.8 48.1803 3.6 44.975 2.1 41.3689C0.6 37.7629 0 34.0568 0 30.0501C0 26.0434 0.8 22.2371 2.3 18.6311C3.8 15.025 6 11.6194 8.9 8.71452C14.6 2.90484 21.6 0 29.9 0ZM30.1 5.40901C23.2 5.40901 17.5 7.81302 12.8 12.621C10.4 15.025 8.6 17.7295 7.4 20.7346C6.1 23.7396 5.5 26.8447 5.5 30.0501C5.5 33.2554 6.1 36.3606 7.4 39.3656C8.7 42.3706 10.5 44.975 12.8 47.379C15.2 49.6828 17.8 51.4858 20.8 52.788C23.8 53.99 26.9 54.591 30.1 54.591C33.3 54.591 36.4 53.99 39.4 52.6878C42.4 51.3856 45.1 49.5826 47.6 47.2788C52.3 42.6711 54.6 36.9616 54.6 30.0501C54.6 26.7446 54 23.5392 52.8 20.6344C51.6 17.6294 49.8 15.025 47.5 12.7212C42.6 7.81302 36.8 5.40901 30.1 5.40901ZM29.7 25.0417L25.7 27.1452C25.3 26.2437 24.7 25.6427 24.1 25.2421C23.5 24.8414 22.9 24.7412 22.4 24.7412C19.7 24.7412 18.4 26.5442 18.4 30.0501C18.4 31.6528 18.7 32.9549 19.4 33.9566C20.1 34.9583 21.1 35.3589 22.4 35.3589C24.2 35.3589 25.4 34.4574 26.1 32.7546L29.8 34.6578C29 36.1603 27.9 37.2621 26.5 38.1636C25.1 38.9649 23.6 39.4658 21.9 39.4658C19.2 39.4658 17.1 38.6644 15.4 36.9616C13.8 35.3589 12.9 33.0551 12.9 30.0501C12.9 27.1452 13.7 24.9416 15.4 23.2387C17.1 21.5359 19.2 20.7346 21.7 20.7346C25.4 20.7346 28.1 22.1369 29.7 25.0417ZM47 25.0417L43 27.1452C42.6 26.2437 42 25.6427 41.4 25.2421C40.8 24.8414 40.2 24.7412 39.6 24.7412C36.9 24.7412 35.6 26.5442 35.6 30.0501C35.6 31.6528 35.9 32.9549 36.6 33.9566C37.3 34.9583 38.3 35.3589 39.6 35.3589C41.3 35.3589 42.6 34.4574 43.3 32.7546L47.1 34.6578C46.3 36.1603 45.2 37.2621 43.8 38.1636C42.4 38.9649 40.9 39.4658 39.2 39.4658C36.5 39.4658 34.3 38.6644 32.7 36.9616C31.1 35.3589 30.3 33.0551 30.3 30.0501C30.3 27.1452 31.1 24.9416 32.8 23.2387C34.5 21.5359 36.6 20.7346 39.1 20.7346C42.8 20.7346 45.4 22.1369 47 25.0417Z" fill="currentColor"/>
</svg>
