<svg viewBox="0 0 60 60" xmlns="http://www.w3.org/2000/svg">
<path d="M30 0C38.4 0 45.5 2.9 51.3 8.7C57.1 14.5 60 21.6 60 30C60 38.4 57.1 45.4 51.4 51.1C45.3 57.1 38.2 60 29.9 60C21.8 60 14.7 57 8.80001 51.1C2.90001 45.2 0 38.2 0 30C0 21.8 2.90001 14.7 8.80001 8.7C14.7 2.9 21.8 0 30 0ZM6.90001 21.9C6.00001 24.4 5.60001 27.1 5.60001 30C5.60001 36.6 8.00001 42.4 12.9 47.3C17.8 52.1 23.6 54.5 30.3 54.5C37.1 54.5 42.9 52.1 47.8 47.2C49.6 45.5 50.9 43.8 51.9 41.9L40.6 36.9C40.2 38.8 39.3 40.3 37.7 41.5C36.2 42.7 34.4 43.4 32.3 43.6V48.2H28.8V43.6C25.5 43.6 22.4 42.4 19.7 40L23.8 35.8C25.8 37.6 28 38.5 30.5 38.5C31.5 38.5 32.4 38.3 33.2 37.8C33.9 37.3 34.3 36.6 34.3 35.5C34.3 34.7 34 34.1 33.5 33.7L30.6 32.5L27.1 30.9L22.3 28.8L6.90001 21.9ZM30.2 5.4C23.4 5.4 17.6 7.8 12.9 12.6C11.7 13.8 10.6 15.1 9.60001 16.6L21.1 21.7C21.6 20.1 22.5 18.9 23.9 17.9C25.3 17 26.9 16.4 28.8 16.3V11.7H32.3V16.3C35.1 16.4 37.5 17.4 39.8 19.1L35.9 23.1C34.2 21.9 32.5 21.3 30.8 21.3C29.9 21.3 29 21.5 28.3 21.8C27.6 22.2 27.2 22.8 27.2 23.6C27.2 23.9 27.3 24.1 27.5 24.4L31.3 26.1L33.9 27.3L38.7 29.4L54.1 36.3C54.6 34.2 54.9 32.1 54.9 29.9C54.9 23 52.5 17.2 47.7 12.5C42.8 7.8 37 5.4 30.2 5.4Z" fill="currentColor"/>
</svg>
