<svg viewBox="0 0 60 60" xmlns="http://www.w3.org/2000/svg">
<path d="M30 0C38.4 0 45.5 2.9 51.3 8.7C57.1 14.5 60 21.6 60 30C60 38.4 57.1 45.4 51.4 51.1C45.4 57 38.2 60 29.9 60C21.8 60 14.8 57.1 8.8 51.2C2.90001 45.3 0 38.3 0 30C0 21.8 2.90001 14.7 8.8 8.7C14.8 2.9 21.8 0 30 0ZM30.2 5.4C23.4 5.4 17.6 7.8 12.9 12.6C8.00001 17.6 5.60001 23.4 5.60001 30C5.60001 36.7 8.00001 42.4 12.9 47.3C17.8 52.2 23.5 54.6 30.3 54.6C37 54.6 42.8 52.2 47.8 47.3C52.5 42.7 54.9 37 54.9 30.1C54.9 23.2 52.5 17.5 47.7 12.7C42.8 7.8 37 5.4 30.2 5.4ZM41.5 22.9V28H19.7V22.9H41.5ZM41.5 32.6V37.7H19.7V32.6H41.5Z" fill="currentColor"/>
</svg>
