<svg viewBox="0 0 60 60" xmlns="http://www.w3.org/2000/svg">
<path d="M30 0C38.4 0 45.5 2.9 51.3 8.7C57.1 14.5 60 21.6 60 30C60 38.4 57.1 45.4 51.4 51.1C45.4 57 38.2 60 29.9 60C21.8 60 14.8 57.1 8.8 51.2C2.9 45.3 0 38.3 0 30C0 21.8 2.9 14.7 8.8 8.7C14.8 2.9 21.8 0 30 0ZM30.2 5.4C23.4 5.4 17.6 7.8 12.9 12.6C8.00001 17.6 5.60001 23.4 5.60001 30C5.60001 36.7 8.00001 42.4 12.9 47.2C17.8 52.1 23.5 54.5 30.3 54.5C37 54.5 42.8 52.1 47.8 47.2C52.5 42.6 54.9 36.9 54.9 30C54.9 23.1 52.5 17.4 47.7 12.6C42.8 7.8 37 5.4 30.2 5.4ZM16.8 25.8C17.4 22.1 18.9 19.3 21.2 17.3C23.6 15.3 26.5 14.3 29.9 14.3C34.6 14.3 38.4 15.8 41.1 18.9C43.9 21.9 45.3 25.8 45.3 30.6C45.3 35.2 43.9 39 41 42.1C38.1 45.2 34.4 46.7 29.7 46.7C26.3 46.7 23.4 45.7 20.9 43.6C18.4 41.6 17 38.7 16.5 34.9H24.1C24.3 38.5 26.5 40.4 30.7 40.4C32.8 40.4 34.5 39.5 35.8 37.7C37.1 35.9 37.7 33.4 37.7 30.4C37.7 27.2 37.1 24.8 35.9 23.1C34.7 21.4 33 20.6 30.8 20.6C26.8 20.6 24.5 22.4 24 25.9H26.2L20.3 31.8L14.4 25.9L16.8 25.8Z" fill="currentColor"/>
</svg>
