<svg viewBox="0 0 60 60" xmlns="http://www.w3.org/2000/svg">
<path d="M30 12.7C20.1 12.7 17.6 22 17.6 30C17.6 37.9 20.1 47.3 30 47.3C39.9 47.3 42.4 38 42.4 30C42.4 22.1 39.9 12.7 30 12.7ZM30 19.2C30.4 19.2 30.8 19.3 31.1 19.3C31.8 19.9 32.2 20.8 31.5 21.9L24.9 34C24.7 32.5 24.7 31 24.7 29.8C24.7 26.5 24.9 19.2 30 19.2ZM34.9 24.8C35.2 26.7 35.3 28.6 35.3 30C35.3 33.5 35.1 40.8 30 40.8C29.6 40.8 29.2 40.8 28.9 40.7C28.8 40.7 28.8 40.7 28.7 40.6C28.6 40.6 28.5 40.5 28.4 40.5C27.3 40 26.6 39.1 27.6 37.6L34.9 24.8Z" fill="currentColor"/>
<path d="M29.9 0C21.6 0 14.6 2.9 8.8 8.7C5.9 11.6 3.7 14.9 2.2 18.6C0.699997 22.2 0 26 0 30C0 34 0.699997 37.8 2.2 41.4C3.7 45 5.9 48.3 8.7 51.1C11.6 54 14.8 56.2 18.4 57.7C22.2 59.3 26 60 29.9 60C33.9 60 37.7 59.2 41.4 57.7C45.1 56.2 48.4 54 51.4 51.1C54.2 48.4 56.4 45.2 57.8 41.6C59.3 38 60 34.1 60 30C60 25.9 59.3 22.1 57.8 18.5C56.3 14.9 54.2 11.6 51.4 8.8C45.5 2.9 38.3 0 29.9 0ZM30.1 5.4C36.9 5.4 42.7 7.8 47.5 12.6C49.8 14.9 51.6 17.6 52.8 20.5C54 23.5 54.6 26.6 54.6 29.9C54.6 36.8 52.2 42.5 47.6 47.1C45.2 49.5 42.4 51.3 39.4 52.5C36.4 53.8 33.3 54.4 30.1 54.4C26.8 54.4 23.7 53.8 20.8 52.6C17.8 51.3 15.2 49.6 12.8 47.2C10.4 44.8 8.6 42.2 7.3 39.2C6.1 36.2 5.4 33.1 5.4 29.9C5.4 26.6 6 23.5 7.3 20.6C8.6 17.6 10.4 14.9 12.8 12.5C17.4 7.8 23.2 5.4 30.1 5.4Z" fill="currentColor"/>
</svg>
